<svg width="27" height="26" viewBox="0 0 27 26" fill="none" xmlns="http://www.w3.org/2000/svg">
<path d="M5.84279 23.8773C5.05328 23.0892 4.26377 22.3025 3.47568 21.5144C3.01889 21.0577 2.55928 20.6023 2.10532 20.1427C0.362759 18.379 0.374038 15.6157 2.12787 13.8604C6.49695 9.48996 10.8674 5.12088 15.2365 0.750387C16.2347 -0.247777 17.6741 -0.252007 18.6765 0.748977C21.0098 3.07803 23.3403 5.40848 25.6693 7.74176C26.6491 8.72301 26.6449 10.1681 25.6623 11.1522C21.4891 15.3281 17.3132 19.5026 13.1373 23.6757C13.0682 23.7448 12.9808 23.7942 12.9018 23.8534L12.9427 23.9323H13.2261C17.4824 23.9323 21.7373 23.9323 25.9936 23.9323C26.5434 23.9323 26.9015 24.2002 26.9861 24.6725C27.0763 25.1744 26.7168 25.6523 26.2107 25.7031C26.1331 25.7115 26.0542 25.7087 25.9767 25.7087C17.6572 25.7087 9.33777 25.7087 1.01833 25.7087C0.503743 25.7087 0.163972 25.4902 0.0413165 25.0827C-0.139143 24.4822 0.290857 23.9337 0.95489 23.9309C2.04892 23.9267 3.14296 23.9309 4.23699 23.9309C4.69236 23.9309 5.14633 23.9309 5.60171 23.9309C5.67784 23.9309 5.75256 23.9309 5.82869 23.9309L5.8442 23.8773H5.84279ZM9.08964 9.41524C9.06145 9.4392 9.03466 9.46176 9.00928 9.48714C7.11587 11.3805 5.21541 13.2697 3.33046 15.1716C2.30974 16.2008 2.32384 17.8418 3.3502 18.8766C4.7262 20.2639 6.10784 21.6442 7.49371 23.0216C8.57928 24.1001 10.2048 24.0959 11.2918 23.0117C13.1528 21.1549 15.0095 19.2954 16.8677 17.4358C16.9114 17.3921 16.9495 17.3442 16.9819 17.3089C14.3483 14.6753 11.7274 12.053 9.08964 9.41524V9.41524Z" fill="#277A63"/>
</svg>
