<svg width="17" height="27" viewBox="0 0 17 27" fill="none" xmlns="http://www.w3.org/2000/svg">
<path d="M5.67598 26.1557C5.39298 26.1557 5.16357 25.9263 5.16357 25.6433V0.512409C5.16357 0.229401 5.39298 0 5.67598 0C5.95899 0 6.18839 0.229401 6.18839 0.512409V25.6433C6.18839 25.9263 5.95899 26.1557 5.67598 26.1557Z" fill="#277A63"/>
<path d="M5.64355 0.939679L16.8306 5.67591L5.67588 10.491L5.64355 0.939679Z" fill="#277A63"/>
<path d="M5.6365 23.2949C2.52342 23.2949 0 24.1242 0 25.1474C0 26.1707 2.52342 27 5.6365 27C8.74958 27 11.273 26.1707 11.273 25.1474C11.273 24.1242 8.74958 23.2949 5.6365 23.2949ZM6.80006 25.8175C5.97784 25.8175 5.31092 25.4998 5.31092 25.108C5.31092 24.7162 5.97784 24.3985 6.80006 24.3985C7.62228 24.3985 8.2892 24.7162 8.2892 25.108C8.2892 25.4998 7.62228 25.8175 6.80006 25.8175Z" fill="#277A63"/>
<path d="M12.7709 24.635C13.3804 24.635 13.8745 24.1409 13.8745 23.5314C13.8745 22.9219 13.3804 22.4277 12.7709 22.4277C12.1614 22.4277 11.6672 22.9219 11.6672 23.5314C11.6672 24.1409 12.1614 24.635 12.7709 24.635Z" fill="#277A63"/>
</svg>
