<svg width="26" height="27" viewBox="0 0 26 27" fill="none" xmlns="http://www.w3.org/2000/svg">
<path d="M10.0664 2.6188C10.8204 1.86041 11.5788 1.10635 12.3329 0.349404C12.7952 -0.114299 13.0089 -0.118632 13.4726 0.349404C16.3849 3.28907 19.2942 6.23163 22.205 9.17275C23.2104 10.1897 24.2187 11.2052 25.2227 12.2236C25.3686 12.371 25.5231 12.5198 25.6315 12.6931C25.8684 13.073 25.669 13.4963 25.2284 13.5758C25.1071 13.5974 24.98 13.5902 24.8543 13.5902C16.8702 13.5902 8.88763 13.5931 0.903573 13.5786C0.643553 13.5786 0.304083 13.4775 0.143737 13.2984C-0.0960587 13.0297 -0.0223864 12.6888 0.26508 12.4129C0.795232 11.903 9.24443 3.44364 10.0664 2.61736V2.6188ZM12.8168 9.63067C14.2065 9.66534 15.3433 8.58192 15.391 7.17926C15.4372 5.82716 14.3307 4.64262 12.9829 4.60073C11.5398 4.55595 10.3986 5.60903 10.3524 7.02758C10.3076 8.43313 11.4084 9.596 12.8168 9.63067Z" fill="#277A63"/>
<path d="M24.4137 26.9466H11.5138C11.5138 26.7978 11.5138 26.6519 11.5138 26.5045C11.5138 24.9776 11.5167 23.4493 11.5138 21.9224C11.5109 20.7884 10.8161 20.0661 9.68211 20.0459C8.60014 20.0271 7.51672 20.0271 6.4333 20.0459C5.29933 20.0647 4.60016 20.7899 4.59728 21.9195C4.59294 23.4334 4.59728 24.9473 4.59728 26.4612C4.59728 26.6114 4.59728 26.7617 4.59728 26.9393H1.31958V14.7805H24.4137V26.9451V26.9466ZM17.5015 19.0896C16.4036 19.0896 15.3072 19.0896 14.2093 19.0896C13.5506 19.0896 13.3946 19.2427 13.3932 19.8957C13.3903 21.2709 13.3903 22.6461 13.3932 24.0213C13.3932 24.6598 13.5752 24.8418 14.2093 24.8433C16.4036 24.8462 18.5993 24.8462 20.7936 24.8433C21.4076 24.8433 21.5968 24.6541 21.5982 24.0531C21.6011 22.6635 21.6011 21.2738 21.5982 19.8856C21.5982 19.2919 21.3975 19.0911 20.7936 19.0896C19.6958 19.0853 18.5993 19.0896 17.5015 19.0896ZM12.7417 17.3576V17.3432C13.6142 17.3432 14.4881 17.3504 15.3607 17.3403C15.8287 17.3345 16.1017 17.0326 16.015 16.6353C15.9356 16.2699 15.6683 16.1745 15.3289 16.1745C13.6806 16.1788 12.031 16.176 10.3813 16.1774C10.2989 16.1774 10.2137 16.1745 10.1328 16.1904C9.81501 16.254 9.59832 16.5775 9.66333 16.9141C9.724 17.2276 9.90602 17.3735 10.2484 17.3648C11.079 17.346 11.9111 17.359 12.7417 17.359V17.3576Z" fill="#277A63"/>
<path d="M5.83527 27C5.83527 25.2636 5.83094 23.5562 5.83816 21.8502C5.83816 21.5381 6.0274 21.3547 6.33942 21.3532C7.50662 21.346 8.67238 21.3446 9.83958 21.3532C10.1487 21.3561 10.3423 21.541 10.3437 21.8502C10.3524 23.5562 10.3481 25.2636 10.3481 26.9985H5.83672L5.83527 27ZM6.74101 24.7537C6.74101 24.8635 6.73668 24.9747 6.74101 25.0845C6.7569 25.4457 6.95625 25.6638 7.30583 25.6696C7.65975 25.6753 7.86054 25.45 7.88943 25.099C7.90677 24.8794 7.90532 24.6569 7.88799 24.4388C7.8591 24.0849 7.65397 23.8653 7.30005 23.8754C6.94903 23.8855 6.75401 24.1051 6.74101 24.4662C6.73812 24.563 6.74101 24.6598 6.74101 24.7552V24.7537Z" fill="#277A63"/>
<path d="M18.0591 23.6486V20.3464H20.34V23.6486H18.0591Z" fill="#277A63"/>
<path d="M16.8516 20.3464V23.6558H14.6443V20.3464H16.8516Z" fill="#277A63"/>
</svg>
