<svg width="27" height="19" viewBox="0 0 27 19" fill="none" xmlns="http://www.w3.org/2000/svg">
<path d="M26.1438 3.62941C23.9563 -0.215536 19.7185 -0.57831 16.8168 0.581656C14.2553 1.60572 13.5206 4.25488 11.4736 5.05094C8.04887 6.38262 6.24239 4.3686 2.77386 5.84699C-0.91983 7.42147 -0.324495 12.6601 1.12489 14.7742C2.57428 16.8883 5.45202 19.2344 11.1893 18.8113C14.1404 18.5941 14.999 15.6271 17.1029 14.1487C18.335 13.2827 21.5187 13.2526 23.4713 11.988C26.4053 10.0877 28.1367 7.13205 26.1438 3.62941ZM21.1968 10.1684C19.6093 10.9622 16.3938 11.0998 15.4539 11.7605C13.8487 12.8881 10.8481 18.3428 7.63549 14.5183C3 9 8.23537 9.42185 10.8481 8.40574C12.4095 7.79846 14.0324 5.96071 15.4539 4.82349C17.3155 3.3343 22.0498 2.49219 23.1301 4.99407C23.8796 6.72947 23.585 8.97435 21.1968 10.1684Z" fill="#277A63"/>
</svg>
