<svg width="23" height="28" viewBox="0 0 23 28" fill="none" xmlns="http://www.w3.org/2000/svg">
<path d="M17.968 16.5303C19.6802 16.2669 20.3387 15.0815 20.3387 15.0815C17.5729 14.423 16.3875 10.4718 16.3875 10.4718C17.3095 10.4718 17.5729 9.68153 17.5729 9.68153C15.5973 9.1547 11.5144 0.85714 11.5144 0.85714C11.5144 0.85714 7.43143 9.1547 5.45582 9.68153C5.45582 9.68153 5.71923 10.4718 6.64118 10.4718C6.64118 10.4718 5.45582 14.423 2.68997 15.0815C2.68997 15.0815 3.3485 16.2669 5.0607 16.5303C5.0607 16.5303 4.13875 19.823 0.714355 21.2718C0.714355 21.2718 2.42655 24.1693 10.1973 24.1693V27.8571H12.8314V24.1693C20.6022 24.1693 22.3144 21.2718 22.3144 21.2718C18.89 19.823 17.968 16.5303 17.968 16.5303Z" fill="#277A63"/>
</svg>
