<svg width="27" height="15" viewBox="0 0 27 15" fill="none" xmlns="http://www.w3.org/2000/svg">
<path d="M18.7716 2.08683H18.7708C15.9891 -0.695608 11.4776 -0.695608 8.69592 2.08683C5.91424 4.86963 5.91349 9.38003 8.69592 12.1628C9.01316 12.4801 9.3529 12.7613 9.71027 13.0058C9.87902 12.9417 10.0343 12.8423 10.167 12.7114L11.2174 11.6753C11.8901 11.0116 12.7781 10.6471 13.7219 10.6471C13.7339 10.6471 13.7463 10.6475 13.7583 10.6475C14.7157 10.6569 15.6104 11.0397 16.2782 11.7256L17.2221 12.6946C17.368 12.8446 17.5431 12.9552 17.7351 13.0212C18.1003 12.7729 18.4476 12.4868 18.7716 12.1628C21.5544 9.38003 21.5544 4.86963 18.7716 2.08683V2.08683ZM17.3121 1.9612L18.8619 3.51067L16.8617 5.51087L15.3123 3.96141L17.3121 1.9612V1.9612ZM10.1209 1.9612L12.1211 3.96141L10.5712 5.51087L8.57142 3.51067L10.1209 1.9612V1.9612ZM10.1209 12.2528L8.57142 10.7034L10.5712 8.70317L12.1211 10.2526L10.1209 12.2528ZM11.796 9.06166C10.7265 7.99181 10.7265 6.25673 11.796 5.18613C12.8658 4.11628 14.6009 4.11628 15.6715 5.18613C16.7414 6.2556 16.7414 7.99069 15.6715 9.06166C14.602 10.1311 12.8669 10.1311 11.796 9.06166V9.06166ZM17.3121 12.2528L15.3123 10.2526L16.8617 8.70317L18.8619 10.7034L17.3121 12.2528V12.2528Z" fill="#277A63"/>
<path d="M18.178 14.6599C18.1705 14.6599 18.163 14.6599 18.1555 14.6599C17.3905 14.6539 16.675 14.349 16.1414 13.8012L15.2054 12.8401C14.8207 12.4452 14.3051 12.2243 13.7534 12.2191C13.2037 12.2138 12.6825 12.4238 12.2899 12.8108L11.2481 13.8387C10.7029 14.3768 9.97916 14.6663 9.21493 14.6573C8.44919 14.6471 7.73484 14.3378 7.20347 13.7858L6.39799 12.9484C6.0065 12.5416 5.48189 12.3181 4.91828 12.3181C4.9104 12.3181 4.90253 12.3181 4.89428 12.3181C4.32167 12.3245 3.79255 12.5603 3.40444 12.9818L2.73995 13.704C2.12647 14.3712 1.25649 14.7004 0.353136 14.607C0.136766 14.5845 -0.0203552 14.391 0.00214427 14.1747C0.0246437 13.9583 0.217764 13.8012 0.434509 13.8237C1.08774 13.8915 1.71698 13.6534 2.16059 13.1712L2.82508 12.4489C3.36169 11.8658 4.0933 11.5396 4.88565 11.531C5.67688 11.5235 6.41637 11.8317 6.96573 12.4024L7.77121 13.2398C8.1552 13.6388 8.67156 13.8627 9.22543 13.8698C9.77891 13.8765 10.3013 13.6669 10.6954 13.2777L11.7371 12.2498C12.273 11.7211 12.9806 11.4308 13.7324 11.4308C13.7422 11.4308 13.7519 11.4308 13.7617 11.4308C14.5244 11.4383 15.2377 11.7436 15.7698 12.29L16.7057 13.2511C17.0916 13.647 17.6087 13.8675 18.1618 13.872C18.7142 13.8773 19.2354 13.6635 19.6277 13.2736L20.5667 12.3387C21.1243 11.7837 21.8656 11.4908 22.6512 11.5118C23.4376 11.5336 24.1606 11.8681 24.6863 12.4534L25.3174 13.1554C25.6617 13.5387 26.1327 13.7772 26.6445 13.827C26.8609 13.848 27.0191 14.0408 26.9981 14.2572C26.9771 14.4735 26.7844 14.6318 26.568 14.6108C25.8597 14.5414 25.2075 14.2118 24.7317 13.6819L24.1006 12.9803C23.7203 12.5569 23.198 12.3155 22.6291 12.2997C22.061 12.2843 21.5251 12.4962 21.122 12.8974L20.183 13.8323C19.6461 14.3667 18.9347 14.6603 18.178 14.6603V14.6599Z" fill="#277A63"/>
<path d="M6.6891 8.18868L6.39811 7.88606C6.00661 7.4792 5.482 7.2557 4.91839 7.2557C4.91052 7.2557 4.90264 7.2557 4.89439 7.25608C4.32178 7.26245 3.79267 7.49795 3.40493 7.91981L2.74044 8.64204C2.12658 9.30915 1.25698 9.6384 0.353624 9.54465C0.137254 9.52252 -0.0198669 9.32903 0.00263255 9.11266C0.024757 8.89629 0.218252 8.73879 0.434622 8.76167C1.08786 8.82916 1.71709 8.59142 2.16071 8.10881L2.82519 7.38657C3.3618 6.80346 4.09341 6.47722 4.88577 6.4686C5.51688 6.46222 6.11536 6.65759 6.61035 7.02658C6.60473 7.41507 6.63097 7.80394 6.6891 8.18868V8.18868Z" fill="#277A63"/>
<path d="M26.9979 9.19478C26.9769 9.41115 26.7841 9.56977 26.5677 9.5484C25.8594 9.47902 25.2073 9.14941 24.7314 8.61954L24.1003 7.91756C23.7201 7.49457 23.1977 7.2527 22.6292 7.23695C22.0611 7.22158 21.5252 7.43345 21.1221 7.83469L20.7812 8.17405C20.8379 7.79269 20.8634 7.40757 20.8581 7.02283C21.3707 6.63284 21.9955 6.43222 22.651 6.44985C23.4373 6.4716 24.1603 6.80609 24.686 7.39107L25.3171 8.09306C25.661 8.4763 26.1324 8.71479 26.6442 8.76467C26.8606 8.78567 27.0189 8.97841 26.9979 9.19478V9.19478Z" fill="#277A63"/>
</svg>
